<?xml version="1.0" standalone="no"?>
<!DOCTYPE svg PUBLIC "-//W3C//DTD SVG 20010904//EN"
 "http://www.w3.org/TR/2001/REC-SVG-20010904/DTD/svg10.dtd">
<svg version="1.0" xmlns="http://www.w3.org/2000/svg"
 width="192.000000pt" height="192.000000pt" viewBox="0 0 192.000000 192.000000"
 preserveAspectRatio="xMidYMid meet">

<g transform="translate(0.000000,192.000000) scale(0.100000,-0.100000)"
fill="#D32F2F" stroke="none">
<path d="M0 960 l0 -960 960 0 960 0 0 960 0 960 -960 0 -960 0 0 -960z m1069
655 c186 -44 343 -205 381 -392 17 -79 8 -214 -19 -293 -50 -148 -166 -314
-349 -500 l-122 -125 -118 121 c-146 150 -237 269 -302 399 -59 118 -80 193
-80 290 0 138 48 253 152 361 122 128 289 178 457 139z"/>
<path d="M877 1490 c-111 -28 -209 -110 -260 -218 -29 -61 -32 -76 -32 -162 0
-89 2 -100 37 -172 156 -327 564 -305 694 37 14 36 19 76 19 140 0 80 -4 97
-31 155 -45 93 -93 143 -177 185 -79 39 -178 53 -250 35z m347 -206 c3 -9 6
-112 6 -229 0 -209 -1 -215 -22 -235 -32 -30 -78 -57 -110 -65 l-28 -7 0 269
c0 148 3 273 7 276 3 4 37 7 74 7 52 0 68 -4 73 -16z m-189 -354 l0 -195 -35
-3 c-19 -2 -54 -1 -77 3 l-43 6 0 188 c0 103 3 191 7 195 4 4 39 5 78 4 l70
-3 0 -195z m-187 -52 c3 -133 2 -135 -63 -92 -85 56 -95 72 -95 139 0 34 3 65
7 69 4 4 39 5 78 4 l70 -3 3 -117z"/>
</g>
</svg>
