<?xml version="1.0" standalone="no"?>
<!DOCTYPE svg PUBLIC "-//W3C//DTD SVG 20010904//EN"
 "http://www.w3.org/TR/2001/REC-SVG-20010904/DTD/svg10.dtd">
<svg version="1.0" xmlns="http://www.w3.org/2000/svg"
 width="512.000000pt" height="512.000000pt" viewBox="0 0 512.000000 512.000000"
 preserveAspectRatio="xMidYMid meet">

<g transform="translate(0.000000,512.000000) scale(0.100000,-0.100000)"
fill="#D32F2F" stroke="#FFFFFF" stroke-width="20">
<path d="M0 2560 l0 -2560 2560 0 2560 0 0 2560 0 2560 -2560 0 -2560 0 0
-2560z m2858 1746 c262 -66 468 -187 664 -394 376 -396 475 -957 267 -1502
-155 -405 -525 -907 -1051 -1428 -112 -110 -150 -142 -171 -142 -36 0 -143 97
-359 327 -337 359 -538 618 -713 916 -243 416 -322 821 -234 1202 119 512 542
930 1044 1029 125 24 131 25 295 21 125 -3 175 -9 258 -29z"/>
<path d="M2455 3990 c-223 -25 -416 -115 -582 -274 -148 -141 -240 -295 -296
-494 -18 -65 -21 -104 -21 -257 0 -163 3 -189 27 -278 73 -270 246 -513 469
-657 329 -213 712 -209 1039 10 94 63 244 221 308 324 60 97 110 213 143 333
19 66 22 105 22 263 1 164 -2 195 -22 270 -66 242 -222 459 -426 595 -147 98
-282 146 -456 165 -104 11 -105 11 -205 0z m799 -552 c14 -20 16 -95 16 -619
l0 -596 -77 -62 c-73 -59 -245 -152 -305 -167 l-28 -6 0 718 c0 654 1 719 17
736 14 16 34 18 189 18 167 0 173 -1 188 -22z m-506 -440 c9 -9 12 -139 12
-524 l0 -512 -77 -7 c-87 -9 -203 -2 -280 16 l-53 12 0 498 c0 439 2 499 16
513 13 13 45 16 193 16 124 0 181 -4 189 -12z m-508 -353 c10 -12 14 -91 15
-315 2 -165 -1 -302 -5 -305 -12 -7 -148 65 -212 111 -29 21 -83 67 -120 103
l-68 64 0 159 c0 91 4 168 10 179 10 18 23 19 189 19 148 0 181 -3 191 -15z"/>
</g>
</svg>
